<mxfile host="app.diagrams.net" modified="2024-06-22T18:20:37.985Z" agent="Mozilla/5.0 (Macintosh; Intel Mac OS X 10.15; rv:126.0) Gecko/20100101 Firefox/126.0" version="24.6.2" etag="DHcEKszXZBisa6U10StE" type="github">
  <diagram name="Page-1" id="JZH0-FLLyCloRmju1dn3">
    <mxGraphModel>
      <root>
        <mxCell id="0" />
        <mxCell id="1" parent="0" />
      </root>
    </mxGraphModel>
  </diagram>
</mxfile>
